<svg width="16" height="15" viewBox="0 0 16 15" fill="none" xmlns="http://www.w3.org/2000/svg">
<path d="M8.49839 3.62495C6.36911 3.62495 4.65162 5.32827 4.65162 7.43999C4.65162 9.55171 6.36911 11.255 8.49839 11.255C10.6277 11.255 12.3452 9.55171 12.3452 7.43999C12.3452 5.32827 10.6277 3.62495 8.49839 3.62495ZM8.49839 9.92026C7.12239 9.92026 5.99749 8.80796 5.99749 7.43999C5.99749 6.07202 7.11905 4.95972 8.49839 4.95972C9.87774 4.95972 10.9993 6.07202 10.9993 7.43999C10.9993 8.80796 9.8744 9.92026 8.49839 9.92026ZM13.3998 3.4689C13.3998 3.96362 12.998 4.35874 12.5025 4.35874C12.0037 4.35874 11.6053 3.9603 11.6053 3.4689C11.6053 2.97749 12.007 2.57905 12.5025 2.57905C12.998 2.57905 13.3998 2.97749 13.3998 3.4689ZM15.9475 4.37202C15.8906 3.18003 15.6161 2.12417 14.7356 1.25425C13.8584 0.384326 12.7938 0.112061 11.5919 0.0522949C10.3532 -0.0174316 6.64029 -0.0174316 5.40156 0.0522949C4.203 0.10874 3.13835 0.381006 2.25785 1.25093C1.37734 2.12085 1.10616 3.17671 1.04589 4.3687C0.975587 5.59722 0.975587 9.27944 1.04589 10.508C1.10281 11.7 1.37734 12.7558 2.25785 13.6257C3.13835 14.4957 4.19965 14.7679 5.40156 14.8277C6.64029 14.8974 10.3532 14.8974 11.5919 14.8277C12.7938 14.7712 13.8584 14.499 14.7356 13.6257C15.6128 12.7558 15.8873 11.7 15.9475 10.508C16.0179 9.27944 16.0179 5.60054 15.9475 4.37202ZM14.3472 11.8261C14.0861 12.4769 13.5806 12.9783 12.921 13.2406C11.9334 13.6291 9.58982 13.5394 8.49839 13.5394C7.40697 13.5394 5.06007 13.6257 4.07577 13.2406C3.41958 12.9816 2.91404 12.4802 2.64955 11.8261C2.25785 10.8466 2.34824 8.52241 2.34824 7.43999C2.34824 6.35757 2.26119 4.03003 2.64955 3.05386C2.91069 2.40308 3.41623 1.90171 4.07577 1.6394C5.06341 1.25093 7.40697 1.34058 8.49839 1.34058C9.58982 1.34058 11.9367 1.25425 12.921 1.6394C13.5772 1.89839 14.0827 2.39976 14.3472 3.05386C14.7389 4.03335 14.6485 6.35757 14.6485 7.43999C14.6485 8.52241 14.7389 10.85 14.3472 11.8261Z" fill="white"/>
</svg>
