<svg width="18" height="14" viewBox="0 0 18 14" fill="none" xmlns="http://www.w3.org/2000/svg">
<path d="M16.2493 3.44097C16.2601 3.59198 16.2601 3.74302 16.2601 3.89403C16.2601 8.49997 12.7547 13.8071 6.34785 13.8071C4.37402 13.8071 2.54044 13.2354 0.998047 12.243C1.27849 12.2754 1.54811 12.2862 1.83934 12.2862C3.46799 12.2862 4.96725 11.736 6.16448 10.7976C4.63289 10.7652 3.34936 9.76205 2.90713 8.38133C3.12287 8.41367 3.33857 8.43526 3.5651 8.43526C3.87788 8.43526 4.19069 8.39209 4.48189 8.31662C2.88559 7.99299 1.68832 6.59072 1.68832 4.8972V4.85407C2.15209 5.11295 2.69143 5.27475 3.26304 5.2963C2.32467 4.67065 1.7099 3.60277 1.7099 2.39464C1.7099 1.74745 1.88244 1.15417 2.18446 0.636404C3.89942 2.75061 6.47726 4.1313 9.36785 4.28234C9.31394 4.02346 9.28156 3.75381 9.28156 3.48414C9.28156 1.56407 10.8347 0 12.7654 0C13.7685 0 14.6745 0.420684 15.3109 1.10025C16.0982 0.949244 16.8532 0.657987 17.522 0.258885C17.2631 1.06791 16.713 1.74748 15.9904 2.17892C16.6915 2.10345 17.371 1.90925 17.9966 1.6396C17.5221 2.32993 16.9288 2.94475 16.2493 3.44097Z" fill="white"/>
</svg>
